<mxfile host="app.diagrams.net" modified="2022-06-18T16:00:24.157Z" agent="5.0 (Windows NT 10.0; Win64; x64) AppleWebKit/537.36 (KHTML, like Gecko) Chrome/102.0.5005.124 Safari/537.36 Edg/102.0.1245.41" etag="FlqfFVKYGXfHOkJf7oRk" version="20.0.1" type="github">
  <diagram id="QOWadQsl_J4P6_I2JHrh" name="Page-1">
    <mxGraphModel dx="1483" dy="770" grid="1" gridSize="10" guides="1" tooltips="1" connect="1" arrows="1" fold="1" page="1" pageScale="1" pageWidth="850" pageHeight="1100" math="0" shadow="0">
      <root>
        <mxCell id="0" />
        <mxCell id="1" parent="0" />
        <mxCell id="RFpofgzgelrwcWHgkq2O-20" value="Web Application Rabbitry Management System" style="ellipse;whiteSpace=wrap;html=1;aspect=fixed;fontSize=15;" vertex="1" parent="1">
          <mxGeometry x="320" y="390" width="190" height="190" as="geometry" />
        </mxCell>
        <mxCell id="RFpofgzgelrwcWHgkq2O-22" value="User" style="whiteSpace=wrap;html=1;aspect=fixed;fontSize=15;" vertex="1" parent="1">
          <mxGeometry x="90" y="210" width="120" height="120" as="geometry" />
        </mxCell>
        <mxCell id="RFpofgzgelrwcWHgkq2O-24" value="Records" style="whiteSpace=wrap;html=1;aspect=fixed;fontSize=15;" vertex="1" parent="1">
          <mxGeometry x="710" y="600" width="120" height="120" as="geometry" />
        </mxCell>
        <mxCell id="RFpofgzgelrwcWHgkq2O-26" value="Web Application Rabbitry Management System" style="ellipse;whiteSpace=wrap;html=1;aspect=fixed;fontSize=15;" vertex="1" parent="1">
          <mxGeometry x="480" y="750" width="190" height="190" as="geometry" />
        </mxCell>
      </root>
    </mxGraphModel>
  </diagram>
</mxfile>
